<?xml version="1.0" encoding="utf-8"?>
<!-- Generator: Adobe Illustrator 16.0.0, SVG Export Plug-In . SVG Version: 6.00 Build 0)  -->
<!DOCTYPE svg PUBLIC "-//W3C//DTD SVG 1.1//EN" "http://www.w3.org/Graphics/SVG/1.1/DTD/svg11.dtd">
<svg version="1.1" id="Camada_1" xmlns="http://www.w3.org/2000/svg" xmlns:xlink="http://www.w3.org/1999/xlink" x="0px" y="0px"
	 width="1440px" height="810px" viewBox="0 0 1440 810" enable-background="new 0 0 1440 810" xml:space="preserve">
<path fill-rule="evenodd" clip-rule="evenodd" fill="#D4CAD3" d="M601.032,131.717l130.339,31.406l130.721,29.913l-94.508,96.074
	l-93.394,97.126L638.36,258.757L601.032,131.717L601.032,131.717z M663.044,189.449l16.488,56.127l15.833,56.32l40.787-42.774
	l41.275-42.308l-57.274-13.353L663.044,189.449z"/>
<path fill-rule="evenodd" clip-rule="evenodd" fill="#EB0FA5" d="M633.11,94.201l116.558,66.249l117.338,64.92l-117.403,66.168
	l-116.625,67.488l0.846-132.417L633.11,94.201L633.11,94.201z M676.724,166.839l0.313,58.499l-0.37,58.502l51.03-29.816
	l51.372-29.233l-51.343-28.682L676.724,166.839z"/>
<g>
	<path fill="#023246" d="M351.733,566.958l-49.865-29.28c-3.515,0.576-7.544,0.867-12.082,0.867c-14.207,0-26.289-3.07-36.246-9.218
		c-9.961-6.145-17.464-14.712-22.516-25.702c-5.053-10.986-7.579-23.783-7.579-38.39c0-16.192,3.075-29.715,9.226-40.56
		s14.351-18.869,24.603-24.075c10.249-5.206,21.6-7.809,34.049-7.809c14.203,0,26.285,3.074,36.246,9.218
		c9.957,6.147,17.463,14.715,22.516,25.702c5.052,10.99,7.579,23.787,7.579,38.39c0,15.908-3.223,29.355-9.666,40.343
		c-6.446,10.99-15.085,19.231-25.921,24.726l40.419,19.737L351.733,566.958z M249.477,494.624
		c3.295,8.459,8.31,15.074,15.047,19.846c6.734,4.771,15.157,7.157,25.262,7.157c10.396,0,19.073-2.348,26.031-7.049
		c6.954-4.697,12.154-11.17,15.597-19.412c3.439-8.241,5.162-17.856,5.162-28.847c0-11.278-1.647-21.146-4.943-29.605
		c-3.295-8.459-8.313-15.074-15.047-19.846c-6.737-4.771-15.157-7.158-25.262-7.158c-10.4,0-19.077,2.353-26.031,7.05
		c-6.958,4.7-12.158,11.17-15.597,19.411c-3.443,8.242-5.162,17.86-5.162,28.848C244.534,476.297,246.182,486.165,249.477,494.624z"
		/>
	<path fill="#023246" d="M464.421,438.774v97.168h-16.915l-1.099-7.157c-11.278,6.507-22.701,9.76-34.269,9.76
		c-8.934,0-16.221-2.494-21.857-7.482c-5.639-4.989-8.458-12.543-8.458-22.666v-67.453l18.892-2.169v64.2
		c0,4.771,0.583,8.567,1.757,11.387c1.171,2.819,3.076,4.847,5.711,6.073c2.636,1.23,6.295,1.844,10.984,1.844
		c7.029,0,15.816-2.674,26.36-8.025v-73.31L464.421,438.774z"/>
	<path fill="#023246" d="M559.864,445.932c5.636,5.063,8.457,13.014,8.457,23.858v66.152h-17.134l-1.098-8.242
		c-10.105,7.232-21.748,10.845-34.928,10.845c-5.567,0-10.544-1.051-14.938-3.145c-4.393-2.095-7.798-5.06-10.214-8.893
		c-2.417-3.83-3.625-8.205-3.625-13.122c0-7.951,2.855-14.566,8.567-19.846c5.711-5.277,13.324-9.144,22.846-11.604
		c9.518-2.457,20.062-3.829,31.632-4.121v-4.771c0-6.507-1.318-11.241-3.954-14.206c-2.636-2.962-7.105-4.446-13.4-4.446
		c-10.691,0-21.823,3.762-33.39,11.278l-8.348-13.014c14.059-9.543,28.777-14.315,44.154-14.315
		C545.768,438.34,554.225,440.872,559.864,445.932z M509.999,519.893c2.269,1.881,5.674,2.819,10.215,2.819
		c9.957,0,19.694-2.891,29.216-8.676v-22.557c-12.741,0.579-23.065,2.531-30.973,5.855c-7.908,3.328-11.862,8.025-11.862,14.099
		C506.594,515.195,507.727,518.015,509.999,519.893z"/>
	<path fill="#023246" d="M597.974,535.942V386.72l18.892-2.169v151.392H597.974z"/>
	<path fill="#023246" d="M647.619,535.942V386.72l18.892-2.169v151.392H647.619z"/>
	<path fill="#023246" d="M778.322,440.943v1.301l-36.686,100.422c-3.223,8.818-6.664,15.867-10.324,21.147
		c-3.662,5.276-7.799,9.109-12.411,11.495c-4.613,2.386-10.07,3.579-16.365,3.579c-6.446,0-12.816-1.085-19.111-3.254l5.053-14.314
		c4.246,1.301,8.419,1.951,12.521,1.951c3.367,0,6.223-0.508,8.567-1.518c2.341-1.014,4.647-2.966,6.92-5.856
		c2.269-2.895,4.503-7.232,6.7-13.014l2.635-6.94h-5.052l-36.904-93.698v-1.301h19.99l22.626,60.729l2.416,6.507l3.516,10.194
		l5.49-16.701l21.09-60.729H778.322z"/>
	<path fill="#023246" d="M867.508,444.847c6.003,4.338,10.435,10.123,13.29,17.352c2.855,7.232,4.283,15.111,4.283,23.642
		c0,10.99-2.162,20.463-6.48,28.413c-4.321,7.954-10.214,13.989-17.683,18.11s-15.964,6.182-25.482,6.182
		c-7.177,0-14.134-0.942-20.868-2.819v40.559h-18.892V440.943l18.892-2.169v8.459c5.272-2.892,10.506-5.098,15.706-6.615
		c5.197-1.519,10.067-2.278,14.608-2.278C853.96,438.34,861.501,440.509,867.508,444.847z M849.824,519.784
		c4.613-2.674,8.272-6.832,10.983-12.472c2.708-5.64,4.064-12.651,4.064-21.039c0-10.845-2.197-18.869-6.591-24.075
		c-4.393-5.205-10.619-7.808-18.672-7.808c-8.495,0-16.842,2.386-25.042,7.157v58.995c6.882,2.169,13.324,3.253,19.331,3.253
		C839.901,523.796,845.211,522.461,849.824,519.784z"/>
	<path fill="#023246" d="M908.146,535.942V386.72l18.892-2.169v151.392H908.146z"/>
	<path fill="#023246" d="M1022.482,445.932c5.636,5.063,8.458,13.014,8.458,23.858v66.152h-17.135l-1.099-8.242
		c-10.104,7.232-21.747,10.845-34.927,10.845c-5.567,0-10.545-1.051-14.938-3.145c-4.394-2.095-7.799-5.06-10.215-8.893
		c-2.417-3.83-3.625-8.205-3.625-13.122c0-7.951,2.855-14.566,8.567-19.846c5.711-5.277,13.324-9.144,22.846-11.604
		c9.518-2.457,20.062-3.829,31.633-4.121v-4.771c0-6.507-1.318-11.241-3.954-14.206c-2.637-2.962-7.105-4.446-13.4-4.446
		c-10.691,0-21.822,3.762-33.39,11.278l-8.348-13.014c14.059-9.543,28.777-14.315,44.154-14.315
		C1008.386,438.34,1016.844,440.872,1022.482,445.932z M972.617,519.893c2.27,1.881,5.674,2.819,10.215,2.819
		c9.957,0,19.695-2.891,29.217-8.676v-22.557c-12.741,0.579-23.065,2.531-30.974,5.855c-7.908,3.328-11.862,8.025-11.862,14.099
		C969.213,515.195,970.346,518.015,972.617,519.893z"/>
	<path fill="#023246" d="M1144.067,468.488v67.454h-18.892v-60.514c0-5.348-0.55-9.506-1.647-12.471
		c-1.099-2.962-2.932-5.098-5.492-6.398c-2.563-1.302-6.041-1.952-10.435-1.952c-4.393,0-9.081,0.616-14.059,1.844
		c-4.98,1.229-9.665,2.856-14.059,4.88v74.611h-18.892v-94.999l18.892-2.169v9.109c12.302-6.361,24.016-9.544,35.147-9.544
		C1134.254,438.34,1144.067,448.392,1144.067,468.488z"/>
</g>
<g>
	<path fill="#45565E" d="M825.061,642.086c4.129,0,7.441-0.918,7.594-3.415c0.204-2.905-13.964-9.53-13.964-18.092
		c0-0.153,0-0.255,0-0.408c0.356-6.677,6.677-17.786,18.806-17.786c6.371,0,8.613,3.924,8.613,8.256
		c0,5.504-3.619,11.772-7.084,11.772c-3.262,0-3.567-3.873-3.567-3.873c2.904-1.121,5.656-6.167,5.656-9.734
		c0-2.089-0.917-3.618-3.262-3.618c-6.523,0-12.485,9.989-12.485,15.9c0,8.512,11.772,10.499,11.722,17.889
		c-0.357,6.473-8.868,9.633-16.462,9.633c-6.167,0-11.671-2.09-11.671-6.167c0-1.121,0.408-2.345,1.325-3.771
		C812.677,640.404,819.557,642.086,825.061,642.086z"/>
	<path fill="#45565E" d="M859.359,632.963c-0.306,0.561-6.115,13.455-13.148,13.557c-3.822,0.051-6.829-3.007-6.829-8.358
		c0-5.657,5.963-17.175,12.18-17.175c3.415,0,4.689,1.732,4.689,4.077c0,4.587-4.944,11.467-7.645,11.467
		c-2.956,0-2.854-2.904-2.854-2.904c-0.306,0.407-0.815,2.242-0.815,4.128c0,2.191,0.663,4.434,3.211,4.383
		c3.721,0,8.001-7.543,8.001-7.543c0.51-0.815,1.02-1.631,1.479-2.548c0.152-0.306,0.407-0.561,0.815-0.561
		c0.561,0,1.019,0.407,1.019,0.968C859.461,632.657,859.359,632.963,859.359,632.963z M846.976,632.708
		c0,0.408,0.203,0.714,0.611,0.714c1.987,0,6.37-5.504,6.37-7.543c0-0.407-0.152-0.662-0.561-0.662
		C851.46,625.217,846.976,630.67,846.976,632.708z"/>
	<path fill="#45565E" d="M893.098,632.861c-0.051,0.102-6.421,13.658-11.416,13.658c-3.669,0-4.943-2.446-4.943-5.81
		c0-5.25,3.16-12.792,5.046-16.411c-3.16,3.16-10.244,18.194-10.295,22.221c-4.077,0-5.453-2.293-5.453-5.402
		c0-6.014,5.097-15.137,6.014-17.175c-6.014,7.033-11.772,19.978-11.875,22.577c-4.179,0-5.249-2.65-5.249-5.402
		c0-2.956,1.223-5.963,1.223-5.963c0.765-1.987,5.708-12.944,5.708-14.168c3.415,0,3.976,1.987,3.976,3.415
		c0,0.764-0.153,1.376-0.153,1.376s-4.128,10.142-4.79,11.619c2.548-4.739,10.346-16.41,11.722-16.41c0,0,3.669-0.204,3.669,3.822
		c0,0.102,0,0.153,0,0.255c0,0.663-3.669,6.932-4.229,12.436c2.191-5.811,9.021-16.513,10.295-16.513
		c2.599,0,3.771,1.784,3.771,4.23c0,0-3.059,7.135-3.059,11.212c0,1.631,0.459,2.752,1.835,2.752c2.497,0,6.319-6.931,6.422-7.135
		c0.203-0.357,0.458-0.663,0.866-0.663c0.561,0,0.968,0.459,0.968,1.02C893.148,632.556,893.098,632.861,893.098,632.861z"/>
	<path fill="#45565E" d="M909.406,625.522c0,6.37-3.618,20.997-9.989,20.997c-3.466,0-5.198-2.803-5.657-6.37
		c-3.363,9.122-6.88,19.876-6.88,24.921c-3.924,0-5.657-1.478-5.708-4.893c-0.051-3.414,13.913-35.98,13.862-39.191
		c3.16,0,4.383,1.784,4.383,3.517c0,0.407-0.051,0.866-0.204,1.224c-0.306,0.814-0.814,2.14-1.427,3.771
		c2.549-4.28,5.657-8.511,7.39-8.511C907.011,620.986,909.406,622.107,909.406,625.522z M904.922,625.93
		c0-0.866-0.204-1.273-0.612-1.273c-1.987,0-8.256,10.346-8.256,13.098c0,1.07,0.051,3.465,2.09,3.465
		C900.793,641.219,904.922,630.262,904.922,625.93z"/>
	<path fill="#45565E" d="M932.544,632.963c-1.835,3.822-6.728,13.557-10.906,13.557c-3.567,0-5.046-2.293-5.046-5.249
		c0-0.663,0.051-1.376,0.204-2.09c1.427-6.829,7.033-13.913,7.033-13.913c-1.02,0.968-4.332,2.191-6.778,2.191
		c-0.459,0-0.866-0.051-1.274-0.153c-0.458,1.173-1.528,3.364-2.599,5.657c0,0-0.204,0.51-0.714,0.51
		c-0.561,0-1.121-0.459-1.121-1.02c0-0.203,0.102-0.407,0.102-0.407c1.07-2.09,2.141-4.332,2.65-5.505
		c-0.917-0.611-1.682-1.376-1.682-2.803c0-1.223,0.51-2.803,1.528-2.803c0.561,0,1.173,1.886,5.301,1.886
		c3.517,0,5.147-1.835,6.473-1.835c1.376,0,3.313,2.548,3.313,3.567c-0.917,1.274-5.708,9.072-5.708,12.741
		c0,1.172,0.459,1.886,1.682,1.886c2.09,0,4.995-5.555,5.81-7.135c0.153-0.357,0.459-0.561,0.867-0.561
		c0.51,0,0.968,0.407,0.968,0.968C932.646,632.657,932.544,632.963,932.544,632.963z"/>
	<path fill="#45565E" d="M949.413,632.963c-0.306,0.561-6.115,13.455-13.148,13.557c-3.822,0.051-6.829-3.007-6.829-8.358
		c0-5.657,5.963-17.175,12.18-17.175c3.415,0,4.689,1.732,4.689,4.077c0,4.587-4.943,11.467-7.645,11.467
		c-2.956,0-2.854-2.904-2.854-2.904c-0.306,0.407-0.815,2.242-0.815,4.128c0,2.191,0.662,4.434,3.211,4.383
		c3.721,0,8.001-7.543,8.001-7.543c0.51-0.815,1.02-1.631,1.479-2.548c0.152-0.306,0.407-0.561,0.815-0.561
		c0.561,0,1.02,0.407,1.02,0.968C949.516,632.657,949.413,632.963,949.413,632.963z M937.029,632.708
		c0,0.408,0.203,0.714,0.611,0.714c1.987,0,6.37-5.504,6.37-7.543c0-0.407-0.152-0.662-0.561-0.662
		C941.514,625.217,937.029,630.67,937.029,632.708z"/>
	<path fill="#45565E" d="M985.343,632.453c0,0.204-0.153,0.51-0.153,0.51c-2.752,5.861-7.186,13.557-11.06,13.557
		c-2.803,0-4.535-2.141-4.638-5.912c-1.886,3.262-4.025,5.912-6.014,5.912c-3.466,0-4.79-2.293-4.79-5.453
		c0-7.492,7.339-20.029,11.823-20.08c3.007,0.051,3.924,2.497,4.128,4.74c1.376-2.65,2.446-4.485,2.446-4.485
		c0.153-0.153,0.408-0.255,0.663-0.255c1.273,0,3.313,1.529,3.313,2.803c0,0.103-0.051,0.153-0.051,0.255
		c-1.274,2.345-4.485,9.684-4.485,13.251c0,1.172,0.357,1.937,1.274,1.937c1.58,0,3.822-3.669,5.657-7.186
		c0.152-0.357,0.458-0.561,0.866-0.561C984.884,631.485,985.343,631.893,985.343,632.453z M965.008,640.71
		c2.497,0,7.645-10.855,7.645-14.321c0-1.02-0.356-1.835-1.376-1.835c-2.396,0-7.033,11.009-7.033,14.882
		C964.243,639.945,964.345,640.71,965.008,640.71z"/>
	<path fill="#45565E" d="M1004.147,631.485c0.51,0,1.02,0.407,1.02,1.019c0,0.103,0,0.255-0.052,0.357
		c-0.764,1.58-3.465,7.849-8.307,7.849c-0.561,0-1.02-0.052-1.427-0.103c-2.039,3.415-4.638,5.912-7.39,5.912
		c-5.811,0-6.116-5.352-6.116-6.829c0-6.829,5.198-16.665,9.071-16.665c0,0,1.07-2.039,3.874-2.039c3.058,0,4.332,2.752,4.332,6.473
		c0,3.466-1.07,7.695-2.804,11.314c0.204,0,0.357,0,0.561,0c3.16,0,5.861-5.657,6.422-6.728
		C1003.536,631.688,1003.842,631.485,1004.147,631.485z M992.681,639.282c-0.612-0.713-0.765-1.579-0.765-2.191
		c0-1.273,0.815-1.987,1.325-1.987s1.02,0.408,1.07,0.765c0.917-2.345,2.191-6.319,2.191-8.868c0-1.273-0.204-2.701-1.427-2.701
		c-2.549,0-7.187,9.123-7.187,14.271c0,2.089,0.459,3.363,1.937,3.363C990.795,641.933,991.763,640.862,992.681,639.282z"/>
	<path fill="#45565E" d="M1035.694,631.23c0.459,0,0.917,0.356,0.917,0.917c0,0.103,0,0.255-0.051,0.356
		c-0.866,1.938-1.834,3.976-2.242,4.842c-2.905,5.556-6.064,9.123-12.69,9.123c-5.605,0.051-7.287-2.6-7.899-4.791
		c-0.102-0.407-0.152-0.815-0.152-1.223c0-1.937,1.172-3.874,2.293-3.874c0,3.211,2.446,4.893,4.434,4.893
		c1.377,0,2.498-0.764,2.498-2.344c0-2.446-2.09-4.893-2.09-9.123c0-0.815,0.051-1.732,0.255-2.701
		c-0.459,0.714-1.682,3.109-2.803,5.657c0,0-0.255,0.408-0.815,0.408s-1.02-0.408-1.02-0.969c0-0.204,0.102-0.356,0.102-0.356
		c2.09-4.128,4.842-11.06,10.754-11.06c2.497,0,3.924,2.446,3.924,3.109c0,0.102,0,0.203-0.102,0.203
		c-0.051,0-0.102-0.051-0.204-0.102c-0.255-0.204-0.917-0.356-1.732-0.356c-1.631,0-3.771,0.866-3.925,4.535
		c0,4.128,4.077,8.308,4.077,11.824c0,0.407-0.051,0.866-0.152,1.223c1.273-1.223,2.446-3.108,3.363-4.943
		c1.274-2.497,2.141-4.332,2.242-4.536C1034.93,631.434,1035.338,631.23,1035.694,631.23z"/>
	<path fill="#45565E" d="M1053.175,632.963c-0.306,0.561-6.115,13.455-13.148,13.557c-3.822,0.051-6.829-3.007-6.829-8.358
		c0-5.657,5.963-17.175,12.18-17.175c3.415,0,4.689,1.732,4.689,4.077c0,4.587-4.943,11.467-7.645,11.467
		c-2.956,0-2.854-2.904-2.854-2.904c-0.306,0.407-0.815,2.242-0.815,4.128c0,2.191,0.662,4.434,3.211,4.383
		c3.721,0,8.001-7.543,8.001-7.543c0.51-0.815,1.02-1.631,1.479-2.548c0.152-0.306,0.407-0.561,0.815-0.561
		c0.561,0,1.02,0.407,1.02,0.968C1053.277,632.657,1053.175,632.963,1053.175,632.963z M1040.791,632.708
		c0,0.408,0.203,0.714,0.611,0.714c1.987,0,6.37-5.504,6.37-7.543c0-0.407-0.152-0.662-0.561-0.662
		C1045.275,625.217,1040.791,630.67,1040.791,632.708z"/>
	<path fill="#45565E" d="M1076.822,632.453c0,0.204-0.152,0.51-0.152,0.51c-2.804,5.861-7.187,13.557-11.06,13.557
		c-2.854,0-4.638-2.242-4.638-6.218c-2.242,3.466-4.74,6.218-7.084,6.218c-3.567,0-4.842-2.141-4.842-5.198
		c0-7.39,7.44-20.08,7.44-20.08c0.153-0.153,0.408-0.255,0.714-0.255c1.427,0,3.567,1.529,3.567,3.058
		c-1.274,2.396-5.708,11.06-5.708,14.933c0,1.173,0.408,1.937,1.427,1.937c1.529,0,4.74-5.096,6.575-8.612
		c2.242-5.453,5.504-11.06,5.504-11.06c0.152-0.153,0.407-0.255,0.662-0.255c1.274,0,3.313,1.529,3.313,2.803
		c0,0.103-0.051,0.153-0.051,0.255c-1.273,2.345-4.535,9.734-4.535,13.251c0,1.172,0.356,1.937,1.273,1.937
		c1.631,0,3.976-3.669,5.708-7.186c0.204-0.408,0.459-0.561,0.866-0.561C1076.363,631.485,1076.822,631.893,1076.822,632.453z"/>
	<path fill="#45565E" d="M1102.51,632.963c-0.307,0.714-5.606,13.557-10.958,13.557c-1.886,0-5.759-1.121-5.759-6.778
		c0-0.815,0.051-1.784,0.255-2.803c1.376-7.441,10.702-26.808,10.702-28.133c2.804,0,3.771,1.173,3.771,2.905
		c0,0.662-0.102,1.376-0.356,2.141c-0.663,2.293-7.899,16.818-7.899,22.781c0,1.579,0.51,2.548,1.783,2.548
		c2.549,0,5.556-4.842,6.728-7.135c0.204-0.408,0.459-0.612,0.866-0.612c0.561,0,1.02,0.408,1.02,0.969
		C1102.662,632.606,1102.51,632.963,1102.51,632.963z"/>
	<path fill="#45565E" d="M1125.239,632.453c0,0.204-0.153,0.51-0.153,0.51c-2.752,5.861-7.186,13.557-11.06,13.557
		c-2.803,0-4.535-2.141-4.638-5.912c-1.886,3.262-4.025,5.912-6.014,5.912c-3.466,0-4.79-2.293-4.79-5.453
		c0-7.492,7.339-20.029,11.823-20.08c3.007,0.051,3.924,2.497,4.128,4.74c1.376-2.65,2.446-4.485,2.446-4.485
		c0.153-0.153,0.408-0.255,0.663-0.255c1.273,0,3.313,1.529,3.313,2.803c0,0.103-0.051,0.153-0.051,0.255
		c-1.274,2.345-4.485,9.684-4.485,13.251c0,1.172,0.357,1.937,1.274,1.937c1.58,0,3.822-3.669,5.657-7.186
		c0.152-0.357,0.458-0.561,0.866-0.561C1124.78,631.485,1125.239,631.893,1125.239,632.453z M1104.904,640.71
		c2.497,0,7.645-10.855,7.645-14.321c0-1.02-0.356-1.835-1.376-1.835c-2.396,0-7.033,11.009-7.033,14.882
		C1104.14,639.945,1104.241,640.71,1104.904,640.71z"/>
	<path fill="#45565E" d="M1148.07,632.352c0,0.204-0.152,0.51-0.152,0.51c-0.153,0.407-5.861,13.658-10.805,13.658
		c-1.784,0-4.434-1.987-4.485-6.625c-1.987,3.618-4.331,6.625-6.421,6.625c-3.567,0-4.943-2.396-4.943-5.759
		c0-7.543,7.033-19.774,11.977-19.774c2.649,0,3.465,1.58,3.924,3.363c2.6-6.523,5.352-12.689,5.352-13.454
		c2.803,0.051,3.822,1.172,3.822,2.905c0,0.611-0.153,1.324-0.356,2.089c-0.663,2.243-7.492,15.392-7.492,20.896
		c0,1.479,0.51,2.396,1.732,2.396c2.6,0,5.708-6.778,5.963-7.237c0.204-0.306,0.459-0.561,0.866-0.561
		C1147.612,631.383,1148.07,631.842,1148.07,632.352z M1127.735,640.71c2.498,0,7.646-10.855,7.646-14.321
		c0-1.02-0.357-1.835-1.377-1.835c-2.395,0-7.032,11.009-7.032,14.882C1126.972,639.945,1127.073,640.71,1127.735,640.71z"/>
	<path fill="#45565E" d="M1166.671,631.485c0.51,0,1.02,0.407,1.02,1.019c0,0.103,0,0.255-0.052,0.357
		c-0.764,1.58-3.465,7.849-8.307,7.849c-0.561,0-1.02-0.052-1.427-0.103c-2.039,3.415-4.638,5.912-7.39,5.912
		c-5.811,0-6.116-5.352-6.116-6.829c0-6.829,5.198-16.665,9.071-16.665c0,0,1.07-2.039,3.874-2.039c3.058,0,4.332,2.752,4.332,6.473
		c0,3.466-1.07,7.695-2.804,11.314c0.204,0,0.357,0,0.561,0c3.16,0,5.861-5.657,6.422-6.728
		C1166.06,631.688,1166.365,631.485,1166.671,631.485z M1155.204,639.282c-0.612-0.713-0.765-1.579-0.765-2.191
		c0-1.273,0.815-1.987,1.325-1.987s1.02,0.408,1.07,0.765c0.917-2.345,2.191-6.319,2.191-8.868c0-1.273-0.204-2.701-1.427-2.701
		c-2.549,0-7.187,9.123-7.187,14.271c0,2.089,0.459,3.363,1.937,3.363C1153.318,641.933,1154.286,640.862,1155.204,639.282z"/>
</g>
<rect x="818.82" y="564.335" fill-rule="evenodd" clip-rule="evenodd" fill="#45565E" width="109.875" height="18"/>
<rect x="932.07" y="564.335" fill-rule="evenodd" clip-rule="evenodd" fill="#EB0FA5" width="109.875" height="18"/>
<rect x="1045.32" y="564.335" fill-rule="evenodd" clip-rule="evenodd" fill="#45565E" width="109.875" height="18"/>
<path opacity="0.65" fill-rule="evenodd" clip-rule="evenodd" fill="#D70159" d="M779.088,224.665L657.625,344.763l-24.647,14.263
	l0.765-147.393l42.998-41.532l0.295,55.236l-0.37,58.502l51.03-29.816C739.405,247.36,779.191,224.725,779.088,224.665z"/>
</svg>
